<svg xmlns="http://www.w3.org/2000/svg" xmlns:xlink="http://www.w3.org/1999/xlink" width="500" zoomAndPan="magnify" viewBox="0 0 375 374.999991" height="500" preserveAspectRatio="xMidYMid meet" version="1.0"><defs><g/><clipPath id="9ab7f4ee87"><path d="M 174.320312 164.078125 L 187.5 164.078125 L 187.5 196.042969 L 174.320312 196.042969 Z M 174.320312 164.078125 " clip-rule="nonzero"/></clipPath><clipPath id="bf97e847e0"><path d="M 175 165 L 185 165 L 185 197 L 175 197 Z M 175 165 " clip-rule="nonzero"/></clipPath><clipPath id="3054f6410e"><path d="M 169.765625 169.859375 L 183.25 165.246094 L 192.230469 191.503906 L 178.75 196.113281 Z M 169.765625 169.859375 " clip-rule="nonzero"/></clipPath><clipPath id="f6077122c5"><path d="M 169.765625 169.859375 L 183.25 165.246094 L 192.230469 191.503906 L 178.75 196.113281 Z M 169.765625 169.859375 " clip-rule="nonzero"/></clipPath><clipPath id="143fea520e"><path d="M 175 167 L 181 167 L 181 197 L 175 197 Z M 175 167 " clip-rule="nonzero"/></clipPath><clipPath id="95d9fc8860"><path d="M 169.765625 169.859375 L 183.25 165.246094 L 192.230469 191.503906 L 178.75 196.113281 Z M 169.765625 169.859375 " clip-rule="nonzero"/></clipPath><clipPath id="6eda1f89b3"><path d="M 169.765625 169.859375 L 183.25 165.246094 L 192.230469 191.503906 L 178.75 196.113281 Z M 169.765625 169.859375 " clip-rule="nonzero"/></clipPath><clipPath id="c730be4957"><path d="M 301.652344 190.921875 L 306.640625 190.921875 L 306.640625 196.042969 L 301.652344 196.042969 Z M 301.652344 190.921875 " clip-rule="nonzero"/></clipPath><clipPath id="d14b985bff"><path d="M 196.480469 81.035156 L 231.414062 81.035156 L 231.414062 139 L 196.480469 139 Z M 196.480469 81.035156 " clip-rule="nonzero"/></clipPath><clipPath id="468dceebbe"><path d="M 196.648438 138.300781 C 196.351562 129.375 196.800781 126.375 197.25 123.523438 C 197.699219 120.375 198.148438 116.773438 199.050781 114 C 199.875 111.675781 200.851562 109.949219 202.199219 107.851562 C 203.851562 105.226562 206.175781 102.074219 208.425781 99.675781 C 210.449219 97.425781 212.25 96 214.875 93.675781 C 218.925781 90.226562 228.074219 81.300781 230.25 81.148438 C 230.773438 81.074219 231.300781 81.523438 231.300781 81.824219 C 231.300781 82.050781 230.550781 82.574219 230.324219 82.5 C 230.101562 82.425781 229.875 81.523438 230.023438 81.300781 C 230.175781 81.148438 230.925781 81.074219 231.074219 81.300781 C 231.300781 81.449219 231.300781 81.898438 231.074219 82.351562 C 229.875 84.898438 214.351562 95.625 209.550781 100.648438 C 206.699219 103.648438 205.125 106.050781 203.550781 108.523438 C 202.273438 110.476562 201.375 111.75 200.550781 114.226562 C 199.273438 117.824219 198.375 124.351562 198 128.699219 C 197.699219 132.226562 198.75 137.101562 198.148438 138.375 C 197.925781 138.75 197.625 138.976562 197.398438 138.976562 C 197.101562 138.976562 196.648438 138.300781 196.648438 138.300781 " clip-rule="nonzero"/></clipPath><clipPath id="32f8becdb4"><path d="M 179.597656 162.730469 L 182.269531 162.730469 L 182.269531 167.972656 L 179.597656 167.972656 Z M 179.597656 162.730469 " clip-rule="nonzero"/></clipPath><clipPath id="5c000ec51e"><path d="M 179.925781 166.875 C 180.675781 164.023438 181.425781 164.25 181.648438 164.550781 C 181.949219 165 181.726562 166.425781 181.425781 166.800781 C 181.199219 167.101562 180.75 167.25 180.449219 167.175781 C 180.226562 167.101562 180.074219 166.800781 180 166.5 C 179.851562 165.824219 180.226562 163.648438 180.75 163.125 C 181.050781 162.824219 181.648438 162.601562 181.875 162.824219 C 182.25 163.199219 181.648438 167.398438 181.050781 167.773438 C 180.75 167.925781 180 167.699219 179.851562 167.324219 C 179.476562 166.726562 180.523438 163.949219 180.449219 163.875 C 180.300781 163.875 179.550781 165.449219 179.625 165.523438 C 179.699219 165.523438 180.226562 164.699219 180.449219 164.773438 C 180.75 164.773438 181.125 165.523438 181.050781 165.824219 C 180.976562 166.050781 180.300781 166.273438 180.074219 166.199219 C 179.851562 166.050781 179.550781 165.601562 179.625 165.375 C 179.699219 165.148438 180.601562 164.773438 180.75 164.851562 C 180.976562 165 180.976562 165.898438 180.824219 166.125 C 180.675781 166.273438 180.074219 166.273438 179.925781 166.050781 C 179.699219 165.898438 179.625 165.375 179.699219 165.148438 C 179.851562 164.925781 180.226562 164.699219 180.449219 164.773438 C 180.75 164.773438 180.898438 165.523438 181.125 165.523438 C 181.425781 165.449219 181.800781 164.023438 181.949219 164.023438 C 182.023438 164.101562 181.648438 167.101562 181.199219 167.625 C 180.976562 167.925781 180.601562 168 180.375 167.925781 C 180.148438 167.851562 179.925781 167.550781 179.851562 167.101562 C 179.625 166.351562 180.148438 163.574219 180.75 163.125 C 181.125 162.824219 181.949219 162.898438 182.175781 163.273438 C 182.550781 163.800781 181.574219 166.949219 181.050781 167.175781 C 180.75 167.324219 180.226562 167.023438 180 166.648438 C 179.773438 166.125 180.074219 164.175781 180.449219 163.726562 C 180.675781 163.425781 181.050781 163.351562 181.273438 163.425781 C 181.574219 163.574219 181.800781 164.023438 181.875 164.476562 C 181.949219 165.148438 181.726562 166.726562 181.273438 167.023438 C 180.976562 167.25 179.925781 166.875 179.925781 166.875 " clip-rule="nonzero"/></clipPath><clipPath id="a4fcc159c7"><path d="M 178.695312 163.308594 L 181.199219 163.308594 L 181.199219 167.863281 L 178.695312 167.863281 Z M 178.695312 163.308594 " clip-rule="nonzero"/></clipPath><clipPath id="708de12c53"><path d="M 179.699219 165 C 179.699219 163.5 180.601562 163.425781 180.824219 163.726562 C 181.273438 164.25 180.75 167.101562 180.226562 167.625 C 179.851562 167.851562 179.023438 167.851562 178.800781 167.550781 C 178.425781 167.023438 179.625 163.5 180.148438 163.351562 C 180.449219 163.273438 180.898438 163.726562 180.976562 164.101562 C 181.199219 164.699219 180.824219 166.648438 180.449219 167.25 C 180.226562 167.550781 179.851562 167.851562 179.625 167.851562 C 179.398438 167.851562 178.875 167.324219 178.949219 167.101562 C 178.949219 166.875 179.851562 166.351562 180.074219 166.425781 C 180.226562 166.574219 180.300781 167.550781 180.148438 167.699219 C 180 167.851562 179.023438 167.550781 178.949219 167.324219 C 178.875 167.101562 179.476562 166.351562 179.773438 166.351562 C 180 166.351562 180.449219 166.949219 180.449219 167.175781 C 180.375 167.476562 179.550781 167.773438 179.550781 167.851562 C 179.550781 167.851562 180.375 167.398438 180.375 167.398438 C 180.375 167.398438 179.851562 167.851562 179.625 167.851562 C 179.398438 167.773438 179.023438 167.476562 178.949219 167.101562 C 178.800781 166.351562 179.699219 163.5 180.148438 163.351562 C 180.449219 163.273438 180.898438 163.648438 180.976562 164.101562 C 181.199219 164.773438 180.75 167.175781 180.226562 167.625 C 179.851562 167.851562 179.023438 167.851562 178.800781 167.550781 C 178.5 167.101562 179.101562 164.773438 179.625 164.25 C 180 163.949219 180.75 163.949219 180.976562 164.101562 C 181.125 164.25 181.273438 164.773438 181.125 164.925781 C 180.976562 165.148438 179.699219 165 179.699219 165 " clip-rule="nonzero"/></clipPath><clipPath id="8a87bc2667"><path d="M 178.292969 163.324219 L 181.300781 163.324219 L 181.300781 169.996094 L 178.292969 169.996094 Z M 178.292969 163.324219 " clip-rule="nonzero"/></clipPath><clipPath id="6af24118e0"><path d="M 178.875 167.550781 C 180.148438 163.425781 180.898438 163.425781 181.125 163.726562 C 181.648438 164.398438 180.601562 169.199219 179.773438 169.800781 C 179.398438 170.101562 178.726562 169.949219 178.5 169.648438 C 178.199219 169.273438 178.5 168.148438 178.648438 167.398438 C 178.875 166.351562 179.324219 164.476562 179.925781 164.101562 C 180.226562 163.949219 181.050781 164.175781 181.125 164.398438 C 181.199219 164.625 180.675781 165.449219 180.449219 165.449219 C 180.148438 165.449219 179.625 164.550781 179.699219 164.398438 C 179.851562 164.25 180.898438 164.175781 181.125 164.550781 C 181.648438 165.226562 180.523438 169.351562 179.773438 169.800781 C 179.398438 170.023438 178.648438 169.875 178.425781 169.5 C 177.976562 168.824219 179.101562 165.898438 179.476562 164.851562 C 179.699219 164.175781 179.925781 163.425781 180.226562 163.351562 C 180.523438 163.273438 181.050781 163.648438 181.199219 164.023438 C 181.5 164.773438 180.824219 167.324219 180.300781 167.925781 C 180.074219 168.226562 179.625 168.375 179.398438 168.300781 C 179.175781 168.226562 178.875 167.550781 178.875 167.550781 " clip-rule="nonzero"/></clipPath><clipPath id="4e965bab2a"><path d="M 178.171875 163.0625 L 180.8125 163.0625 L 180.8125 169.609375 L 178.171875 169.609375 Z M 178.171875 163.0625 " clip-rule="nonzero"/></clipPath><clipPath id="d60be50da8"><path d="M 178.199219 168.898438 C 179.625 163.125 180.074219 162.976562 180.300781 163.125 C 180.523438 163.199219 180.824219 163.726562 180.75 164.023438 C 180.675781 164.25 180 164.625 179.773438 164.550781 C 179.550781 164.398438 179.25 163.5 179.398438 163.351562 C 179.550781 163.125 180.523438 163.199219 180.675781 163.425781 C 180.75 163.648438 180.300781 164.550781 180.074219 164.550781 C 179.925781 164.550781 179.25 163.648438 179.324219 163.425781 C 179.398438 163.199219 180.074219 163.050781 180.300781 163.125 C 180.523438 163.199219 180.675781 163.425781 180.75 163.800781 C 180.976562 164.773438 180.226562 168.449219 179.625 169.199219 C 179.324219 169.5 178.949219 169.648438 178.726562 169.574219 C 178.5 169.5 178.199219 168.824219 178.199219 168.824219 " clip-rule="nonzero"/></clipPath><clipPath id="bbe44f8c91"><path d="M 178.347656 162.640625 L 181 162.640625 L 181 168.535156 L 178.347656 168.535156 Z M 178.347656 162.640625 " clip-rule="nonzero"/></clipPath><clipPath id="eeb81c2c1e"><path d="M 178.351562 167.699219 C 179.851562 162.75 180.824219 162.898438 180.898438 163.050781 C 180.976562 163.273438 180.148438 164.101562 179.925781 164.023438 C 179.773438 164.023438 179.625 162.824219 179.773438 162.675781 C 179.925781 162.601562 180.75 162.976562 180.898438 163.5 C 181.273438 164.324219 180.300781 167.625 179.699219 168.300781 C 179.398438 168.523438 178.949219 168.601562 178.726562 168.449219 C 178.5 168.375 178.351562 167.699219 178.351562 167.699219 " clip-rule="nonzero"/></clipPath><clipPath id="abe0e40860"><path d="M 178.417969 163.007812 L 180.789062 163.007812 L 180.789062 168.796875 L 178.417969 168.796875 Z M 178.417969 163.007812 " clip-rule="nonzero"/></clipPath><clipPath id="3db976b673"><path d="M 178.425781 167.925781 C 179.625 163.050781 180.449219 163.125 180.601562 163.273438 C 180.675781 163.5 180.074219 164.398438 179.925781 164.398438 C 179.699219 164.398438 179.25 163.351562 179.398438 163.125 C 179.550781 162.976562 180.523438 163.125 180.601562 163.351562 C 180.675781 163.574219 179.925781 164.476562 179.773438 164.398438 C 179.550781 164.324219 179.324219 163.199219 179.476562 163.050781 C 179.625 162.976562 180.449219 163.351562 180.675781 163.800781 C 181.050781 164.625 180.300781 167.773438 179.773438 168.449219 C 179.550781 168.675781 179.25 168.824219 179.023438 168.75 C 178.800781 168.675781 178.425781 167.925781 178.425781 167.925781 " clip-rule="nonzero"/></clipPath><clipPath id="03b09ae9db"><path d="M 177.871094 162.3125 L 180.8125 162.3125 L 180.8125 169.953125 L 177.871094 169.953125 Z M 177.871094 162.3125 " clip-rule="nonzero"/></clipPath><clipPath id="5cc4166cfa"><path d="M 177.898438 169.125 C 179.625 162.375 180.523438 162.449219 180.601562 162.601562 C 180.675781 162.824219 179.925781 163.726562 179.773438 163.726562 C 179.550781 163.648438 179.324219 162.449219 179.550781 162.375 C 179.699219 162.226562 180.523438 162.601562 180.675781 163.050781 C 181.125 164.023438 180 168.523438 179.324219 169.425781 C 179.101562 169.800781 178.726562 169.949219 178.425781 169.949219 C 178.199219 169.875 177.898438 169.125 177.898438 169.125 " clip-rule="nonzero"/></clipPath><clipPath id="af5bca0c1f"><path d="M 177.808594 161.53125 L 180.6875 161.53125 L 180.6875 169.3125 L 177.808594 169.3125 Z M 177.808594 161.53125 " clip-rule="nonzero"/></clipPath><clipPath id="e7fa23bfa3"><path d="M 177.824219 168.523438 C 179.476562 161.550781 180.300781 161.625 180.449219 161.773438 C 180.523438 161.925781 179.851562 162.898438 179.699219 162.898438 C 179.476562 162.898438 179.175781 161.699219 179.324219 161.550781 C 179.476562 161.476562 180.300781 161.699219 180.523438 162.148438 C 181.050781 163.125 179.925781 168.074219 179.25 168.898438 C 178.949219 169.199219 178.5 169.351562 178.273438 169.273438 C 178.050781 169.199219 177.824219 168.523438 177.824219 168.523438 " clip-rule="nonzero"/></clipPath><clipPath id="d8050f80fd"><path d="M 177.890625 161.765625 L 180.644531 161.765625 L 180.644531 169.75 L 177.890625 169.75 Z M 177.890625 161.765625 " clip-rule="nonzero"/></clipPath><clipPath id="ff5da438e1"><path d="M 177.898438 169.648438 C 179.476562 162 180.300781 162 180.449219 162.148438 C 180.523438 162.300781 180.148438 163.199219 179.925781 163.273438 C 179.699219 163.351562 179.023438 162.675781 179.023438 162.375 C 179.101562 162.148438 179.476562 161.773438 179.699219 161.773438 C 180 161.773438 180.375 162.074219 180.523438 162.523438 C 180.898438 163.648438 180.074219 168.824219 179.175781 169.574219 C 178.800781 169.875 177.898438 169.648438 177.898438 169.648438 " clip-rule="nonzero"/></clipPath><clipPath id="7c77dde4ec"><path d="M 177.878906 160.554688 L 180.527344 160.554688 L 180.527344 169.0625 L 177.878906 169.0625 Z M 177.878906 160.554688 " clip-rule="nonzero"/></clipPath><clipPath id="3a397edf07"><path d="M 177.898438 168.898438 C 179.324219 160.800781 180.226562 160.800781 180.300781 161.023438 C 180.449219 161.175781 179.925781 162.074219 179.699219 162.074219 C 179.476562 162.074219 178.949219 161.101562 179.023438 160.875 C 179.175781 160.726562 180.148438 160.726562 180.300781 160.949219 C 180.375 161.101562 180 162 179.773438 162.074219 C 179.550781 162.074219 178.875 161.398438 178.949219 161.175781 C 178.949219 160.949219 179.476562 160.574219 179.773438 160.574219 C 180 160.648438 180.300781 160.875 180.375 161.324219 C 180.75 162.523438 180.226562 168.148438 179.324219 168.898438 C 178.949219 169.199219 177.898438 168.898438 177.898438 168.898438 " clip-rule="nonzero"/></clipPath><clipPath id="c7d1b04bd8"><path d="M 180.964844 161.238281 L 183.578125 161.238281 L 183.578125 166.46875 L 180.964844 166.46875 Z M 180.964844 161.238281 " clip-rule="nonzero"/></clipPath><clipPath id="334407ecc5"><path d="M 183.074219 161.476562 C 182.476562 165.449219 181.726562 164.625 181.648438 164.101562 C 181.574219 163.648438 181.949219 162.675781 182.25 162.449219 C 182.550781 162.300781 183.300781 162.523438 183.449219 162.824219 C 183.75 163.351562 183 165.675781 182.476562 166.050781 C 182.101562 166.273438 181.273438 166.199219 181.050781 165.898438 C 180.75 165.449219 181.425781 162.75 181.949219 162.601562 C 182.25 162.449219 183.148438 163.199219 183.148438 163.351562 C 183.074219 163.5 181.875 163.726562 181.800781 163.574219 C 181.648438 163.425781 182.25 162.449219 182.550781 162.375 C 182.699219 162.375 183.074219 162.75 183.148438 163.050781 C 183.300781 163.648438 182.851562 165.523438 182.476562 166.050781 C 182.25 166.273438 181.949219 166.5 181.726562 166.425781 C 181.5 166.425781 181.125 166.050781 181.050781 165.75 C 180.898438 165 182.023438 162.449219 182.625 162.300781 C 182.925781 162.226562 183.375 162.675781 183.523438 162.976562 C 183.675781 163.5 183.226562 164.925781 182.773438 165.375 C 182.476562 165.75 181.726562 166.050781 181.425781 165.898438 C 181.199219 165.75 181.273438 165.300781 181.199219 164.851562 C 181.199219 164.023438 181.125 161.699219 181.648438 161.324219 C 182.023438 161.101562 183.074219 161.476562 183.074219 161.476562 " clip-rule="nonzero"/></clipPath><clipPath id="d184f9c644"><path d="M 180.222656 161.058594 L 183.421875 161.058594 L 183.421875 169.109375 L 180.222656 169.109375 Z M 180.222656 161.058594 " clip-rule="nonzero"/></clipPath><clipPath id="dda616a577"><path d="M 183.375 162.074219 C 181.425781 169.273438 180.449219 168.976562 180.375 168.824219 C 180.300781 168.601562 180.824219 167.925781 181.050781 167.925781 C 181.351562 167.925781 181.949219 168.75 181.875 168.898438 C 181.726562 169.125 180.675781 169.199219 180.375 168.898438 C 179.851562 168.226562 180.898438 164.851562 181.351562 163.425781 C 181.574219 162.449219 181.800781 161.398438 182.25 161.175781 C 182.550781 160.949219 183.074219 161.101562 183.226562 161.25 C 183.449219 161.398438 183.375 162.074219 183.375 162.074219 " clip-rule="nonzero"/></clipPath><clipPath id="56f5fca9de"><path d="M 180.414062 161.777344 L 183.308594 161.777344 L 183.308594 168.855469 L 180.414062 168.855469 Z M 180.414062 161.777344 " clip-rule="nonzero"/></clipPath><clipPath id="f46780f604"><path d="M 183.300781 162.898438 C 181.574219 168.675781 181.050781 168.898438 180.898438 168.824219 C 180.675781 168.675781 180.675781 167.550781 180.824219 167.476562 C 180.976562 167.398438 181.875 168.074219 181.875 168.300781 C 181.875 168.523438 181.199219 168.898438 180.976562 168.824219 C 180.75 168.824219 180.523438 168.523438 180.449219 168.074219 C 180.226562 167.101562 181.273438 162.976562 181.949219 162.148438 C 182.25 161.851562 182.699219 161.699219 182.925781 161.851562 C 183.148438 161.925781 183.300781 162.898438 183.300781 162.898438 " clip-rule="nonzero"/></clipPath><clipPath id="423d585cdf"><path d="M 180.613281 161.972656 L 183.253906 161.972656 L 183.253906 168.015625 L 180.613281 168.015625 Z M 180.613281 161.972656 " clip-rule="nonzero"/></clipPath><clipPath id="2108fa7dc6"><path d="M 183.226562 163.273438 C 181.5 168.148438 180.675781 167.398438 180.675781 167.175781 C 180.75 167.023438 181.648438 166.648438 181.875 166.726562 C 182.023438 166.875 182.023438 167.925781 181.875 168 C 181.648438 168.074219 180.898438 167.699219 180.675781 167.25 C 180.375 166.5 181.273438 164.023438 181.726562 163.050781 C 182.101562 162.523438 182.625 161.925781 182.851562 162 C 183.074219 162.074219 183.226562 163.273438 183.226562 163.273438 " clip-rule="nonzero"/></clipPath><clipPath id="6245a4e0d1"><path d="M 180.15625 161.066406 L 183.636719 161.066406 L 183.636719 170.808594 L 180.15625 170.808594 Z M 180.15625 161.066406 " clip-rule="nonzero"/></clipPath><clipPath id="df5d54a9e9"><path d="M 183.601562 162.375 C 181.351562 170.851562 180.824219 170.925781 180.601562 170.773438 C 180.375 170.699219 180.226562 170.175781 180.300781 169.949219 C 180.375 169.726562 181.050781 169.351562 181.273438 169.425781 C 181.5 169.5 181.726562 170.550781 181.574219 170.625 C 181.425781 170.773438 180.523438 170.476562 180.300781 170.023438 C 179.699219 168.898438 181.199219 163.648438 181.949219 162.226562 C 182.324219 161.625 182.851562 161.101562 183.074219 161.101562 C 183.375 161.175781 183.601562 162.375 183.601562 162.375 " clip-rule="nonzero"/></clipPath><clipPath id="b7efbbf39c"><path d="M 179.347656 157.066406 L 182.753906 157.066406 L 182.753906 166.917969 L 179.347656 166.917969 Z M 179.347656 157.066406 " clip-rule="nonzero"/></clipPath><clipPath id="b3237a8118"><path d="M 182.71875 157.960938 C 181.519531 164.710938 181.21875 166.0625 180.769531 166.511719 C 180.542969 166.8125 180.09375 166.960938 179.945312 166.886719 C 179.71875 166.734375 179.570312 165.609375 179.71875 165.535156 C 179.867188 165.386719 180.84375 165.984375 180.84375 166.210938 C 180.917969 166.4375 180.242188 166.960938 180.019531 166.886719 C 179.792969 166.886719 179.492188 166.4375 179.417969 165.984375 C 179.117188 164.636719 180.46875 158.636719 181.292969 157.585938 C 181.59375 157.210938 182.042969 156.984375 182.34375 157.136719 C 182.570312 157.210938 182.71875 157.960938 182.71875 157.960938 " clip-rule="nonzero"/></clipPath><clipPath id="f2a65ad6b5"><path d="M 180.335938 160 L 184.125 160 L 184.125 170.398438 L 180.335938 170.398438 Z M 180.335938 160 " clip-rule="nonzero"/></clipPath><clipPath id="ab69fc2f8f"><path d="M 183.898438 161.398438 C 181.648438 170.25 181.351562 170.398438 181.125 170.398438 C 180.898438 170.324219 180.375 169.726562 180.449219 169.5 C 180.523438 169.273438 181.425781 168.824219 181.574219 168.976562 C 181.726562 169.125 181.648438 170.25 181.425781 170.324219 C 181.273438 170.398438 180.601562 170.101562 180.449219 169.574219 C 180 168.300781 181.574219 161.851562 182.625 160.648438 C 183.074219 160.199219 183.824219 159.898438 184.050781 160.050781 C 184.199219 160.199219 183.898438 161.398438 183.898438 161.398438 " clip-rule="nonzero"/></clipPath><clipPath id="fbebb384d9"><path d="M 180.832031 159.867188 L 183.976562 159.867188 L 183.976562 169.589844 L 180.832031 169.589844 Z M 180.832031 159.867188 " clip-rule="nonzero"/></clipPath><clipPath id="d4ec3e4be5"><path d="M 183.976562 160.726562 C 182.101562 169.425781 181.648438 169.574219 181.351562 169.574219 C 181.125 169.5 180.824219 168.976562 180.898438 168.75 C 180.976562 168.523438 181.5 168.074219 181.726562 168.074219 C 182.023438 168.148438 182.398438 168.75 182.398438 168.976562 C 182.324219 169.199219 181.726562 169.574219 181.5 169.574219 C 181.199219 169.5 180.976562 169.273438 180.898438 168.824219 C 180.601562 167.625 181.726562 161.476562 182.550781 160.425781 C 182.773438 160.050781 183.148438 159.824219 183.375 159.898438 C 183.601562 159.976562 183.976562 160.726562 183.976562 160.726562 " clip-rule="nonzero"/></clipPath><clipPath id="ef422b8221"><path d="M 180.382812 160.621094 L 184.230469 160.621094 L 184.230469 169.835938 L 180.382812 169.835938 Z M 180.382812 160.621094 " clip-rule="nonzero"/></clipPath><clipPath id="83f973a25f"><path d="M 184.199219 161.699219 C 181.425781 169.648438 180.449219 169.273438 180.449219 169.050781 C 180.375 168.824219 180.976562 168.300781 181.273438 168.300781 C 181.5 168.300781 181.949219 168.898438 181.949219 169.125 C 181.949219 169.351562 181.5 169.800781 181.273438 169.800781 C 181.050781 169.800781 180.601562 169.5 180.449219 169.125 C 180.074219 168.074219 181.726562 163.5 182.398438 162.074219 C 182.699219 161.398438 183 160.648438 183.300781 160.648438 C 183.601562 160.648438 184.199219 161.699219 184.199219 161.699219 " clip-rule="nonzero"/></clipPath><clipPath id="ac069e23dc"><path d="M 177.808594 162.511719 L 180.71875 162.511719 L 180.71875 169.4375 L 177.808594 169.4375 Z M 177.808594 162.511719 " clip-rule="nonzero"/></clipPath><clipPath id="c9a693c3fd"><path d="M 179.476562 167.925781 C 178.199219 168.523438 177.898438 168.148438 177.824219 167.851562 C 177.75 167.175781 179.023438 165.074219 179.476562 165.074219 C 179.699219 165 180.148438 165.375 180.226562 165.675781 C 180.300781 166.199219 179.925781 167.550781 179.476562 167.851562 C 179.101562 168.074219 178.273438 168.148438 178.050781 167.851562 C 177.675781 167.398438 178.574219 164.25 179.175781 163.726562 C 179.476562 163.425781 180.074219 163.351562 180.226562 163.574219 C 180.75 164.023438 179.925781 168.148438 179.324219 168.898438 C 179.101562 169.273438 178.726562 169.425781 178.5 169.425781 C 178.199219 169.351562 177.976562 168.976562 177.898438 168.601562 C 177.675781 167.550781 178.5 163.425781 179.25 162.976562 C 179.625 162.675781 180.375 162.824219 180.601562 163.125 C 180.898438 163.574219 180.300781 165 180.074219 165.898438 C 179.851562 166.875 179.773438 168.449219 179.25 168.75 C 178.949219 168.976562 178.199219 168.898438 177.976562 168.601562 C 177.523438 167.925781 178.5 163.949219 179.175781 163.5 C 179.550781 163.273438 180.148438 163.351562 180.375 163.648438 C 180.675781 164.101562 180.226562 165.976562 179.851562 166.574219 C 179.699219 166.949219 179.476562 167.25 179.25 167.25 C 178.949219 167.25 178.425781 166.800781 178.425781 166.574219 C 178.425781 166.273438 179.101562 165.75 179.398438 165.75 C 179.625 165.824219 179.925781 166.574219 179.851562 166.726562 C 179.699219 166.949219 178.648438 166.949219 178.425781 166.648438 C 178.050781 166.125 178.949219 163.273438 179.476562 162.75 C 179.699219 162.523438 180.148438 162.449219 180.375 162.601562 C 180.675781 162.898438 180.523438 164.324219 180.375 165.226562 C 180.226562 166.351562 179.851562 168.375 179.25 168.75 C 178.875 168.976562 178.199219 168.898438 177.976562 168.601562 C 177.449219 167.851562 178.648438 163.199219 179.398438 162.824219 C 179.699219 162.601562 180.375 162.898438 180.601562 163.351562 C 181.050781 164.175781 179.925781 168.074219 179.324219 168.898438 C 179.175781 169.273438 178.875 169.425781 178.648438 169.425781 C 178.425781 169.425781 178.050781 169.125 177.898438 168.75 C 177.601562 167.925781 178.574219 164.023438 179.25 163.574219 C 179.625 163.351562 180.226562 163.5 180.449219 163.800781 C 180.75 164.25 180.449219 165.675781 180.226562 166.5 C 180 167.25 179.625 168.375 179.175781 168.675781 C 178.875 168.898438 178.273438 168.898438 178.125 168.675781 C 177.824219 168.226562 178.574219 165.375 179.101562 165.148438 C 179.398438 165 180.074219 165.375 180.226562 165.675781 C 180.375 166.199219 179.625 167.773438 179.25 168.226562 C 179.023438 168.449219 178.726562 168.601562 178.5 168.601562 C 178.273438 168.523438 177.824219 168.074219 177.824219 167.851562 C 177.824219 167.476562 178.726562 166.574219 178.949219 166.648438 C 179.25 166.648438 179.476562 167.925781 179.476562 167.925781 " clip-rule="nonzero"/></clipPath><clipPath id="5a7f8c7473"><path d="M 176.542969 168.914062 L 179.214844 168.914062 L 179.214844 178.199219 L 176.542969 178.199219 Z M 176.542969 168.914062 " clip-rule="nonzero"/></clipPath><clipPath id="e518daa0d1"><path d="M 177.542969 175.992188 C 177.242188 176.667969 178.070312 176.890625 177.992188 176.964844 C 177.992188 176.964844 177.019531 177.042969 176.792969 176.742188 C 176.570312 176.441406 176.644531 175.015625 177.019531 174.714844 C 177.242188 174.492188 178.292969 174.492188 178.367188 174.640625 C 178.445312 174.867188 177.46875 175.839844 177.242188 175.765625 C 177.019531 175.691406 176.792969 174.191406 177.019531 173.816406 C 177.242188 173.515625 178.144531 173.367188 178.367188 173.589844 C 178.59375 173.816406 178.367188 175.242188 177.992188 175.464844 C 177.769531 175.617188 176.945312 175.242188 176.792969 175.015625 C 176.644531 174.714844 176.71875 173.964844 176.945312 173.667969 C 177.167969 173.441406 177.769531 173.292969 177.917969 173.441406 C 178.21875 173.667969 178.367188 175.089844 178.070312 175.316406 C 177.84375 175.542969 176.945312 175.242188 176.71875 174.941406 C 176.570312 174.640625 176.644531 173.816406 176.867188 173.589844 C 177.019531 173.367188 177.617188 173.140625 177.84375 173.292969 C 178.144531 173.441406 178.21875 175.089844 177.992188 175.464844 C 177.769531 175.691406 177.242188 175.765625 177.019531 175.691406 C 176.792969 175.542969 176.570312 175.242188 176.570312 174.941406 C 176.570312 174.492188 177.09375 173.441406 177.394531 173.367188 C 177.695312 173.367188 178.292969 174.339844 178.292969 174.640625 C 178.21875 174.867188 177.695312 175.242188 177.46875 175.167969 C 177.242188 175.167969 176.867188 174.792969 176.792969 174.417969 C 176.71875 173.890625 177.320312 172.242188 177.695312 172.089844 C 177.917969 172.015625 178.367188 172.390625 178.519531 172.691406 C 178.667969 172.992188 178.519531 173.742188 178.292969 174.117188 C 178.144531 174.339844 177.769531 174.640625 177.46875 174.640625 C 177.242188 174.640625 176.945312 174.265625 176.867188 173.890625 C 176.71875 173.292969 177.394531 171.339844 177.84375 171.191406 C 178.070312 171.117188 178.519531 171.417969 178.667969 171.714844 C 178.894531 172.167969 178.667969 173.292969 178.367188 173.667969 C 178.21875 173.890625 177.917969 174.191406 177.695312 174.117188 C 177.46875 174.117188 177.09375 173.816406 176.945312 173.441406 C 176.792969 172.917969 176.945312 171.265625 177.394531 170.964844 C 177.695312 170.742188 178.519531 170.816406 178.742188 171.117188 C 178.96875 171.417969 178.820312 172.390625 178.59375 172.691406 C 178.445312 172.992188 177.992188 173.214844 177.769531 173.214844 C 177.542969 173.140625 177.242188 172.917969 177.167969 172.617188 C 177.019531 172.015625 177.617188 169.765625 178.070312 169.617188 C 178.367188 169.464844 178.894531 169.765625 179.042969 170.066406 C 179.269531 170.441406 179.117188 171.492188 178.820312 171.867188 C 178.667969 172.089844 178.21875 172.390625 177.992188 172.316406 C 177.769531 172.316406 177.46875 172.015625 177.394531 171.714844 C 177.242188 171.191406 177.917969 169.015625 178.292969 168.941406 C 178.519531 168.867188 178.96875 169.316406 179.042969 169.691406 C 179.269531 170.367188 178.820312 172.167969 178.445312 172.765625 C 178.292969 173.140625 177.917969 173.367188 177.695312 173.367188 C 177.46875 173.367188 177.09375 172.992188 177.019531 172.691406 C 176.867188 172.089844 177.320312 170.441406 177.695312 170.214844 C 178.070312 170.066406 178.820312 170.292969 178.96875 170.589844 C 179.34375 171.117188 178.820312 173.292969 178.367188 173.816406 C 178.144531 174.042969 177.695312 174.191406 177.46875 174.117188 C 177.242188 174.042969 177.019531 173.667969 177.019531 173.367188 C 176.945312 172.917969 177.167969 171.792969 177.46875 171.566406 C 177.769531 171.417969 178.519531 171.566406 178.742188 171.941406 C 179.117188 172.617188 177.242188 175.765625 177.46875 176.667969 C 177.542969 177.117188 178.21875 177.265625 178.21875 177.492188 C 178.21875 177.714844 177.617188 178.242188 177.394531 178.167969 C 177.167969 178.167969 176.71875 177.566406 176.71875 177.339844 C 176.792969 177.042969 177.394531 176.667969 177.617188 176.742188 C 177.84375 176.742188 178.21875 177.417969 178.21875 177.640625 C 178.144531 177.867188 177.617188 178.242188 177.46875 178.167969 C 177.09375 178.015625 176.945312 175.691406 176.945312 174.566406 C 176.945312 173.515625 176.945312 172.015625 177.394531 171.714844 C 177.695312 171.492188 178.59375 171.640625 178.742188 171.941406 C 178.96875 172.316406 178.519531 173.964844 178.144531 174.042969 C 177.84375 174.117188 177.167969 173.515625 177.019531 173.066406 C 176.792969 172.390625 177.242188 170.441406 177.695312 170.214844 C 178.070312 169.992188 178.820312 170.292969 178.96875 170.589844 C 179.269531 171.042969 178.742188 172.765625 178.292969 173.140625 C 178.070312 173.367188 177.542969 173.367188 177.320312 173.292969 C 177.167969 173.140625 177.019531 172.839844 177.019531 172.464844 C 176.945312 171.792969 177.167969 169.691406 177.695312 169.316406 C 177.992188 169.089844 178.742188 169.089844 179.042969 169.390625 C 179.34375 169.765625 179.117188 171.566406 178.742188 172.015625 C 178.59375 172.242188 178.21875 172.390625 177.992188 172.316406 C 177.769531 172.316406 177.46875 171.867188 177.394531 171.566406 C 177.320312 171.117188 177.46875 170.066406 177.769531 169.765625 C 178.070312 169.617188 178.667969 169.542969 178.894531 169.765625 C 179.269531 170.140625 178.96875 172.390625 178.519531 172.839844 C 178.292969 173.140625 177.769531 173.214844 177.542969 173.140625 C 177.320312 173.066406 177.167969 172.691406 177.167969 172.390625 C 177.09375 172.167969 177.167969 171.792969 177.320312 171.640625 C 177.617188 171.492188 178.445312 171.566406 178.667969 171.867188 C 178.894531 172.167969 178.667969 173.292969 178.367188 173.667969 C 178.21875 173.964844 177.769531 174.191406 177.542969 174.117188 C 177.242188 174.042969 177.019531 173.589844 176.945312 173.292969 C 176.867188 172.765625 177.019531 171.714844 177.394531 171.417969 C 177.617188 171.191406 178.144531 171.117188 178.367188 171.265625 C 178.667969 171.566406 178.667969 173.816406 178.292969 174.265625 C 177.992188 174.566406 177.242188 174.566406 177.019531 174.417969 C 176.792969 174.117188 176.867188 173.066406 177.019531 172.691406 C 177.167969 172.390625 177.46875 172.089844 177.695312 172.089844 C 177.917969 172.089844 178.367188 172.390625 178.519531 172.691406 C 178.667969 173.140625 178.445312 174.566406 178.144531 174.941406 C 177.917969 175.167969 177.46875 175.242188 177.242188 175.167969 C 177.019531 175.015625 176.71875 174.492188 176.792969 174.265625 C 176.867188 173.964844 177.84375 173.441406 178.070312 173.589844 C 178.292969 173.742188 178.292969 175.242188 177.992188 175.464844 C 177.695312 175.617188 176.71875 175.390625 176.570312 175.089844 C 176.417969 174.714844 177.394531 173.214844 177.617188 173.214844 C 177.917969 173.214844 178.367188 174.792969 178.144531 175.167969 C 178.070312 175.464844 177.542969 175.617188 177.242188 175.617188 C 177.019531 175.542969 176.792969 175.242188 176.71875 174.941406 C 176.644531 174.566406 176.71875 173.964844 176.945312 173.667969 C 177.167969 173.441406 177.769531 173.292969 177.917969 173.441406 C 178.21875 173.667969 178.292969 175.242188 177.992188 175.464844 C 177.84375 175.617188 176.945312 175.089844 176.792969 174.792969 C 176.644531 174.492188 176.945312 173.742188 177.242188 173.515625 C 177.46875 173.367188 177.992188 173.292969 178.21875 173.441406 C 178.519531 173.742188 178.445312 175.167969 178.21875 175.542969 C 178.070312 175.765625 177.617188 175.917969 177.394531 175.839844 C 177.167969 175.765625 176.867188 175.316406 176.867188 175.015625 C 176.867188 174.640625 177.617188 173.667969 177.84375 173.742188 C 178.144531 173.816406 178.519531 176.441406 178.144531 176.816406 C 177.917969 177.042969 176.867188 176.816406 176.71875 176.589844 C 176.570312 176.367188 177.019531 175.464844 177.320312 175.316406 C 177.542969 175.167969 177.992188 175.167969 178.21875 175.316406 C 178.519531 175.542969 178.820312 176.515625 178.59375 176.890625 C 178.445312 177.191406 177.320312 177.492188 177.09375 177.265625 C 176.945312 177.117188 177.542969 175.992188 177.542969 175.992188 " clip-rule="nonzero"/></clipPath></defs><rect x="-37.5" width="450" fill="#ffffff" y="-37.499999" height="449.999989" fill-opacity="1"/><rect x="-37.5" width="450" fill="#ffffff" y="-37.499999" height="449.999989" fill-opacity="1"/><g fill="#000000" fill-opacity="1"><g transform="translate(78.437497, 196.723405)"><g><path d="M 23.015625 -19.984375 C 25.585938 -19.378906 27.515625 -18.269531 28.796875 -16.65625 C 30.078125 -15.039062 30.71875 -13.160156 30.71875 -11.015625 C 30.71875 -8.953125 30.160156 -7.085938 29.046875 -5.421875 C 27.941406 -3.765625 26.320312 -2.445312 24.1875 -1.46875 C 22.050781 -0.488281 19.414062 0 16.28125 0 L 3.9375 0 C 2.925781 0 2.207031 -0.109375 1.78125 -0.328125 C 1.351562 -0.554688 1.140625 -0.953125 1.140625 -1.515625 C 1.140625 -2.085938 1.25 -2.5 1.46875 -2.75 C 1.6875 -3.007812 1.953125 -3.238281 2.265625 -3.4375 C 2.585938 -3.644531 2.914062 -3.914062 3.25 -4.25 C 3.582031 -4.582031 3.859375 -5.101562 4.078125 -5.8125 C 4.304688 -6.53125 4.421875 -7.535156 4.421875 -8.828125 L 4.421875 -24.40625 C 4.421875 -25.695312 4.304688 -26.695312 4.078125 -27.40625 C 3.859375 -28.125 3.585938 -28.648438 3.265625 -28.984375 C 2.953125 -29.316406 2.628906 -29.582031 2.296875 -29.78125 C 1.960938 -29.988281 1.6875 -30.21875 1.46875 -30.46875 C 1.25 -30.726562 1.140625 -31.140625 1.140625 -31.703125 C 1.140625 -32.273438 1.351562 -32.671875 1.78125 -32.890625 C 2.207031 -33.117188 2.925781 -33.234375 3.9375 -33.234375 L 14.625 -33.234375 C 16.96875 -33.234375 19.070312 -33.019531 20.9375 -32.59375 C 22.800781 -32.164062 24.296875 -31.425781 25.421875 -30.375 C 26.546875 -29.332031 27.125 -27.894531 27.15625 -26.0625 C 27.21875 -23.175781 25.835938 -21.148438 23.015625 -19.984375 Z M 12.25 -28.484375 L 12.25 -22.3125 C 12.25 -21.707031 12.53125 -21.375 13.09375 -21.3125 C 13.664062 -21.25 14.160156 -21.21875 14.578125 -21.21875 C 16.160156 -21.21875 17.378906 -21.523438 18.234375 -22.140625 C 19.085938 -22.753906 19.515625 -23.695312 19.515625 -24.96875 C 19.515625 -26.269531 19.015625 -27.398438 18.015625 -28.359375 C 17.015625 -29.328125 15.628906 -29.8125 13.859375 -29.8125 C 13.453125 -29.8125 13.082031 -29.710938 12.75 -29.515625 C 12.414062 -29.328125 12.25 -28.984375 12.25 -28.484375 Z M 16.1875 -3.421875 C 20.207031 -3.421875 22.21875 -5.445312 22.21875 -9.5 C 22.21875 -10.945312 21.898438 -12.28125 21.265625 -13.5 C 20.628906 -14.71875 19.691406 -15.707031 18.453125 -16.46875 C 17.222656 -17.226562 15.707031 -17.609375 13.90625 -17.609375 C 13.269531 -17.609375 12.832031 -17.515625 12.59375 -17.328125 C 12.363281 -17.140625 12.25 -16.773438 12.25 -16.234375 L 12.25 -6.734375 C 12.25 -5.566406 12.484375 -4.722656 12.953125 -4.203125 C 13.429688 -3.679688 14.507812 -3.421875 16.1875 -3.421875 Z M 16.1875 -3.421875 "/></g></g></g><g fill="#000000" fill-opacity="1"><g transform="translate(105.346995, 196.723405)"><g><path d="M 27.015625 -3.984375 C 27.578125 -4.046875 27.859375 -3.742188 27.859375 -3.078125 C 27.859375 -2.484375 27.570312 -1.921875 27 -1.390625 C 26.4375 -0.867188 25.75 -0.441406 24.9375 -0.109375 C 24.132812 0.210938 23.335938 0.375 22.546875 0.375 C 21.535156 0.375 20.65625 0.109375 19.90625 -0.421875 C 19.164062 -0.960938 18.578125 -1.832031 18.140625 -3.03125 C 16.929688 -1.800781 15.570312 -0.925781 14.0625 -0.40625 C 12.5625 0.113281 11.101562 0.375 9.6875 0.375 C 8.007812 0.375 6.53125 0.0820312 5.25 -0.5 C 3.96875 -1.082031 2.96875 -1.894531 2.25 -2.9375 C 1.539062 -3.988281 1.1875 -5.160156 1.1875 -6.453125 C 1.1875 -8.703125 2.144531 -10.578125 4.0625 -12.078125 C 5.976562 -13.578125 8.738281 -14.328125 12.34375 -14.328125 C 12.78125 -14.328125 13.21875 -14.300781 13.65625 -14.25 C 14.101562 -14.207031 14.707031 -14.15625 15.46875 -14.09375 C 15.0625 -15.394531 14.5 -16.507812 13.78125 -17.4375 C 13.070312 -18.375 11.910156 -18.84375 10.296875 -18.84375 C 9.378906 -18.84375 8.4375 -18.660156 7.46875 -18.296875 C 6.507812 -17.929688 5.632812 -17.53125 4.84375 -17.09375 C 4.394531 -16.800781 3.972656 -16.804688 3.578125 -17.109375 C 3.179688 -17.410156 3.175781 -17.894531 3.5625 -18.5625 C 3.96875 -19.289062 4.628906 -20.007812 5.546875 -20.71875 C 6.472656 -21.425781 7.582031 -22.023438 8.875 -22.515625 C 10.175781 -23.015625 11.601562 -23.265625 13.15625 -23.265625 C 14.757812 -23.265625 16.097656 -23.007812 17.171875 -22.5 C 18.253906 -21.988281 19.132812 -21.3125 19.8125 -20.46875 C 20.5 -19.632812 21.039062 -18.71875 21.4375 -17.71875 C 21.832031 -16.726562 22.171875 -15.757812 22.453125 -14.8125 L 24.875 -6.546875 C 25.125 -5.722656 25.398438 -5.082031 25.703125 -4.625 C 26.003906 -4.164062 26.441406 -3.953125 27.015625 -3.984375 Z M 12.953125 -3.375 C 13.742188 -3.375 14.488281 -3.53125 15.1875 -3.84375 C 15.882812 -4.15625 16.421875 -4.570312 16.796875 -5.09375 C 17.179688 -5.625 17.3125 -6.1875 17.1875 -6.78125 C 17.15625 -7.132812 17.039062 -7.59375 16.84375 -8.15625 C 16.65625 -8.726562 16.4375 -9.363281 16.1875 -10.0625 C 16 -10.601562 15.625 -11 15.0625 -11.25 C 14.507812 -11.5 13.835938 -11.625 13.046875 -11.625 C 11.566406 -11.625 10.390625 -11.269531 9.515625 -10.5625 C 8.648438 -9.851562 8.21875 -8.910156 8.21875 -7.734375 C 8.21875 -6.472656 8.648438 -5.429688 9.515625 -4.609375 C 10.390625 -3.785156 11.535156 -3.375 12.953125 -3.375 Z M 12.953125 -3.375 "/></g></g></g><g fill="#000000" fill-opacity="1"><g transform="translate(128.412148, 196.723405)"><g><path d="M 26.625 -13.578125 L 28.34375 -5.59375 C 28.5 -4.875 28.710938 -4.320312 28.984375 -3.9375 C 29.253906 -3.5625 29.53125 -3.257812 29.8125 -3.03125 C 30.09375 -2.8125 30.328125 -2.582031 30.515625 -2.34375 C 30.710938 -2.113281 30.8125 -1.773438 30.8125 -1.328125 C 30.8125 -0.785156 30.613281 -0.425781 30.21875 -0.25 C 29.820312 -0.0820312 29.289062 0 28.625 0 L 21.171875 0 C 20.472656 0 19.914062 -0.0976562 19.5 -0.296875 C 19.09375 -0.503906 18.890625 -0.863281 18.890625 -1.375 C 18.890625 -1.789062 19.015625 -2.128906 19.265625 -2.390625 C 19.523438 -2.660156 19.796875 -2.929688 20.078125 -3.203125 C 20.359375 -3.472656 20.578125 -3.828125 20.734375 -4.265625 C 20.898438 -4.710938 20.90625 -5.316406 20.75 -6.078125 L 19.21875 -13.390625 C 19.03125 -14.273438 18.773438 -15.101562 18.453125 -15.875 C 18.140625 -16.65625 17.722656 -17.296875 17.203125 -17.796875 C 16.679688 -18.304688 15.992188 -18.546875 15.140625 -18.515625 C 14.035156 -18.515625 13.09375 -18.039062 12.3125 -17.09375 C 11.539062 -16.144531 11.15625 -14.832031 11.15625 -13.15625 L 11.15625 -6.734375 C 11.15625 -5.660156 11.269531 -4.867188 11.5 -4.359375 C 11.738281 -3.859375 12.007812 -3.492188 12.3125 -3.265625 C 12.613281 -3.046875 12.882812 -2.8125 13.125 -2.5625 C 13.363281 -2.3125 13.484375 -1.898438 13.484375 -1.328125 C 13.484375 -0.785156 13.289062 -0.425781 12.90625 -0.25 C 12.53125 -0.0820312 11.992188 0 11.296875 0 L 3.609375 0 C 2.910156 0 2.351562 -0.0976562 1.9375 -0.296875 C 1.53125 -0.503906 1.328125 -0.863281 1.328125 -1.375 C 1.328125 -1.945312 1.445312 -2.347656 1.6875 -2.578125 C 1.925781 -2.816406 2.203125 -3.046875 2.515625 -3.265625 C 2.828125 -3.492188 3.101562 -3.859375 3.34375 -4.359375 C 3.582031 -4.867188 3.703125 -5.660156 3.703125 -6.734375 L 3.703125 -15.515625 C 3.703125 -16.117188 3.550781 -16.617188 3.25 -17.015625 C 2.945312 -17.410156 2.609375 -17.765625 2.234375 -18.078125 C 2.015625 -18.242188 1.804688 -18.4375 1.609375 -18.65625 C 1.421875 -18.875 1.328125 -19.175781 1.328125 -19.5625 C 1.328125 -20 1.445312 -20.335938 1.6875 -20.578125 C 1.925781 -20.816406 2.328125 -21.0625 2.890625 -21.3125 C 3.523438 -21.59375 4.273438 -21.882812 5.140625 -22.1875 C 6.015625 -22.488281 6.835938 -22.742188 7.609375 -22.953125 C 8.390625 -23.160156 8.90625 -23.265625 9.15625 -23.265625 C 9.945312 -23.265625 10.34375 -22.722656 10.34375 -21.640625 L 10.34375 -19.3125 C 11.226562 -20.613281 12.316406 -21.597656 13.609375 -22.265625 C 14.910156 -22.929688 16.320312 -23.265625 17.84375 -23.265625 C 19.78125 -23.265625 21.304688 -22.851562 22.421875 -22.03125 C 23.546875 -21.207031 24.425781 -20.070312 25.0625 -18.625 C 25.695312 -17.1875 26.21875 -15.503906 26.625 -13.578125 Z M 26.625 -13.578125 "/></g></g></g><g fill="#000000" fill-opacity="1"><g transform="translate(154.419887, 196.723405)"><g><path d="M 25.4375 -32.09375 L 25.390625 -25.578125 L 25.296875 -7.59375 C 25.296875 -6.738281 25.4375 -6.097656 25.71875 -5.671875 C 26.007812 -5.242188 26.328125 -4.925781 26.671875 -4.71875 C 27.023438 -4.519531 27.34375 -4.332031 27.625 -4.15625 C 27.90625 -3.976562 28.046875 -3.71875 28.046875 -3.375 C 28.046875 -2.988281 27.910156 -2.660156 27.640625 -2.390625 C 27.378906 -2.128906 26.945312 -1.820312 26.34375 -1.46875 C 25.832031 -1.21875 25.195312 -0.945312 24.4375 -0.65625 C 23.6875 -0.375 22.929688 -0.140625 22.171875 0.046875 C 21.410156 0.234375 20.789062 0.328125 20.3125 0.328125 C 19.613281 0.328125 19.09375 0.109375 18.75 -0.328125 C 18.40625 -0.773438 18.203125 -1.535156 18.140625 -2.609375 L 18.140625 -3.03125 C 17.378906 -2.019531 16.394531 -1.175781 15.1875 -0.5 C 13.988281 0.175781 12.488281 0.484375 10.6875 0.421875 C 8.9375 0.359375 7.375 -0.0976562 6 -0.953125 C 4.625 -1.804688 3.53125 -3 2.71875 -4.53125 C 1.914062 -6.0625 1.515625 -7.859375 1.515625 -9.921875 C 1.515625 -12.078125 1.894531 -13.984375 2.65625 -15.640625 C 3.414062 -17.304688 4.394531 -18.695312 5.59375 -19.8125 C 6.800781 -20.9375 8.109375 -21.789062 9.515625 -22.375 C 10.921875 -22.96875 12.289062 -23.265625 13.625 -23.265625 C 14.476562 -23.265625 15.257812 -23.179688 15.96875 -23.015625 C 16.6875 -22.859375 17.328125 -22.65625 17.890625 -22.40625 L 17.890625 -25.578125 C 17.890625 -26.273438 17.78125 -26.820312 17.5625 -27.21875 C 17.34375 -27.613281 17.082031 -27.9375 16.78125 -28.1875 C 16.476562 -28.445312 16.21875 -28.6875 16 -28.90625 C 15.78125 -29.125 15.671875 -29.410156 15.671875 -29.765625 C 15.671875 -30.367188 16.191406 -30.90625 17.234375 -31.375 C 17.703125 -31.59375 18.289062 -31.835938 19 -32.109375 C 19.71875 -32.378906 20.441406 -32.632812 21.171875 -32.875 C 21.898438 -33.113281 22.546875 -33.3125 23.109375 -33.46875 C 23.679688 -33.625 24.0625 -33.703125 24.25 -33.703125 C 25.039062 -33.703125 25.4375 -33.164062 25.4375 -32.09375 Z M 14.046875 -4.21875 C 15.253906 -4.21875 16.164062 -4.671875 16.78125 -5.578125 C 17.394531 -6.484375 17.765625 -7.644531 17.890625 -9.0625 L 17.890625 -12.15625 C 17.796875 -14.238281 17.53125 -15.820312 17.09375 -16.90625 C 16.675781 -17.914062 16.109375 -18.671875 15.390625 -19.171875 C 14.679688 -19.679688 13.882812 -19.9375 13 -19.9375 C 11.613281 -19.9375 10.53125 -19.332031 9.75 -18.125 C 8.976562 -16.925781 8.59375 -15.269531 8.59375 -13.15625 C 8.59375 -10.488281 9.113281 -8.332031 10.15625 -6.6875 C 11.195312 -5.039062 12.492188 -4.21875 14.046875 -4.21875 Z M 14.046875 -4.21875 "/></g></g></g><g fill="#000000" fill-opacity="1"><g transform="translate(178.43427, 196.723405)"><g><path d="M 38.125 -26.625 L 38.78125 -7.5 C 38.84375 -6.363281 39.046875 -5.539062 39.390625 -5.03125 C 39.742188 -4.519531 40.132812 -4.140625 40.5625 -3.890625 C 40.988281 -3.640625 41.367188 -3.363281 41.703125 -3.0625 C 42.035156 -2.757812 42.203125 -2.242188 42.203125 -1.515625 C 42.203125 -0.953125 42.003906 -0.554688 41.609375 -0.328125 C 41.210938 -0.109375 40.492188 0 39.453125 0 L 31.09375 0 C 30.113281 0 29.410156 -0.109375 28.984375 -0.328125 C 28.554688 -0.554688 28.34375 -0.953125 28.34375 -1.515625 C 28.34375 -2.179688 28.484375 -2.671875 28.765625 -2.984375 C 29.046875 -3.304688 29.367188 -3.609375 29.734375 -3.890625 C 30.097656 -4.171875 30.414062 -4.570312 30.6875 -5.09375 C 30.957031 -5.625 31.09375 -6.425781 31.09375 -7.5 L 30.8125 -23.734375 L 21.359375 -3.421875 C 21.140625 -2.972656 20.894531 -2.640625 20.625 -2.421875 C 20.351562 -2.203125 19.953125 -2.03125 19.421875 -1.90625 C 18.878906 -1.769531 18.445312 -1.796875 18.125 -1.984375 C 17.8125 -2.179688 17.578125 -2.453125 17.421875 -2.796875 L 8.6875 -23.453125 L 8.171875 -6.078125 C 8.128906 -5.316406 8.226562 -4.722656 8.46875 -4.296875 C 8.707031 -3.867188 8.984375 -3.519531 9.296875 -3.25 C 9.617188 -2.976562 9.90625 -2.707031 10.15625 -2.4375 C 10.40625 -2.175781 10.53125 -1.820312 10.53125 -1.375 C 10.53125 -0.832031 10.347656 -0.472656 9.984375 -0.296875 C 9.628906 -0.128906 9.085938 -0.046875 8.359375 -0.046875 L 3.65625 -0.046875 C 2.769531 -0.046875 2.160156 -0.148438 1.828125 -0.359375 C 1.492188 -0.566406 1.328125 -0.921875 1.328125 -1.421875 C 1.328125 -1.804688 1.460938 -2.128906 1.734375 -2.390625 C 2.003906 -2.660156 2.320312 -2.9375 2.6875 -3.21875 C 3.050781 -3.507812 3.378906 -3.867188 3.671875 -4.296875 C 3.972656 -4.722656 4.140625 -5.316406 4.171875 -6.078125 L 5.171875 -26.625 C 5.203125 -27.476562 5.070312 -28.125 4.78125 -28.5625 C 4.5 -29.007812 4.171875 -29.359375 3.796875 -29.609375 C 3.421875 -29.867188 3.082031 -30.140625 2.78125 -30.421875 C 2.476562 -30.710938 2.328125 -31.140625 2.328125 -31.703125 C 2.328125 -32.273438 2.515625 -32.671875 2.890625 -32.890625 C 3.273438 -33.117188 3.910156 -33.234375 4.796875 -33.234375 L 11.15625 -33.234375 C 12.132812 -33.234375 12.832031 -32.789062 13.25 -31.90625 L 21.453125 -12.90625 L 30.328125 -31.84375 C 30.804688 -32.769531 31.503906 -33.234375 32.421875 -33.234375 L 38.453125 -33.234375 C 39.335938 -33.234375 39.976562 -33.117188 40.375 -32.890625 C 40.769531 -32.671875 40.96875 -32.273438 40.96875 -31.703125 C 40.96875 -31.140625 40.816406 -30.710938 40.515625 -30.421875 C 40.210938 -30.140625 39.867188 -29.867188 39.484375 -29.609375 C 39.109375 -29.359375 38.773438 -29.007812 38.484375 -28.5625 C 38.203125 -28.125 38.082031 -27.476562 38.125 -26.625 Z M 38.125 -26.625 "/></g></g></g><g fill="#000000" fill-opacity="1"><g transform="translate(216.87678, 196.723405)"><g><path d="M 27.015625 -3.984375 C 27.578125 -4.046875 27.859375 -3.742188 27.859375 -3.078125 C 27.859375 -2.484375 27.570312 -1.921875 27 -1.390625 C 26.4375 -0.867188 25.75 -0.441406 24.9375 -0.109375 C 24.132812 0.210938 23.335938 0.375 22.546875 0.375 C 21.535156 0.375 20.65625 0.109375 19.90625 -0.421875 C 19.164062 -0.960938 18.578125 -1.832031 18.140625 -3.03125 C 16.929688 -1.800781 15.570312 -0.925781 14.0625 -0.40625 C 12.5625 0.113281 11.101562 0.375 9.6875 0.375 C 8.007812 0.375 6.53125 0.0820312 5.25 -0.5 C 3.96875 -1.082031 2.96875 -1.894531 2.25 -2.9375 C 1.539062 -3.988281 1.1875 -5.160156 1.1875 -6.453125 C 1.1875 -8.703125 2.144531 -10.578125 4.0625 -12.078125 C 5.976562 -13.578125 8.738281 -14.328125 12.34375 -14.328125 C 12.78125 -14.328125 13.21875 -14.300781 13.65625 -14.25 C 14.101562 -14.207031 14.707031 -14.15625 15.46875 -14.09375 C 15.0625 -15.394531 14.5 -16.507812 13.78125 -17.4375 C 13.070312 -18.375 11.910156 -18.84375 10.296875 -18.84375 C 9.378906 -18.84375 8.4375 -18.660156 7.46875 -18.296875 C 6.507812 -17.929688 5.632812 -17.53125 4.84375 -17.09375 C 4.394531 -16.800781 3.972656 -16.804688 3.578125 -17.109375 C 3.179688 -17.410156 3.175781 -17.894531 3.5625 -18.5625 C 3.96875 -19.289062 4.628906 -20.007812 5.546875 -20.71875 C 6.472656 -21.425781 7.582031 -22.023438 8.875 -22.515625 C 10.175781 -23.015625 11.601562 -23.265625 13.15625 -23.265625 C 14.757812 -23.265625 16.097656 -23.007812 17.171875 -22.5 C 18.253906 -21.988281 19.132812 -21.3125 19.8125 -20.46875 C 20.5 -19.632812 21.039062 -18.71875 21.4375 -17.71875 C 21.832031 -16.726562 22.171875 -15.757812 22.453125 -14.8125 L 24.875 -6.546875 C 25.125 -5.722656 25.398438 -5.082031 25.703125 -4.625 C 26.003906 -4.164062 26.441406 -3.953125 27.015625 -3.984375 Z M 12.953125 -3.375 C 13.742188 -3.375 14.488281 -3.53125 15.1875 -3.84375 C 15.882812 -4.15625 16.421875 -4.570312 16.796875 -5.09375 C 17.179688 -5.625 17.3125 -6.1875 17.1875 -6.78125 C 17.15625 -7.132812 17.039062 -7.59375 16.84375 -8.15625 C 16.65625 -8.726562 16.4375 -9.363281 16.1875 -10.0625 C 16 -10.601562 15.625 -11 15.0625 -11.25 C 14.507812 -11.5 13.835938 -11.625 13.046875 -11.625 C 11.566406 -11.625 10.390625 -11.269531 9.515625 -10.5625 C 8.648438 -9.851562 8.21875 -8.910156 8.21875 -7.734375 C 8.21875 -6.472656 8.648438 -5.429688 9.515625 -4.609375 C 10.390625 -3.785156 11.535156 -3.375 12.953125 -3.375 Z M 12.953125 -3.375 "/></g></g></g><g fill="#000000" fill-opacity="1"><g transform="translate(239.941933, 196.723405)"><g><path d="M 16.75 -5.890625 C 17.257812 -6.234375 17.671875 -6.269531 17.984375 -6 C 18.304688 -5.726562 18.390625 -5.328125 18.234375 -4.796875 C 17.972656 -4.003906 17.507812 -3.203125 16.84375 -2.390625 C 16.1875 -1.585938 15.34375 -0.910156 14.3125 -0.359375 C 13.28125 0.191406 12.054688 0.46875 10.640625 0.46875 C 8.421875 0.46875 6.65625 -0.203125 5.34375 -1.546875 C 4.03125 -2.890625 3.375 -4.84375 3.375 -7.40625 L 3.375 -10.390625 C 3.375 -12.160156 3.390625 -13.828125 3.421875 -15.390625 C 3.453125 -16.960938 3.484375 -18.304688 3.515625 -19.421875 L 2.46875 -19.421875 C 1.769531 -19.421875 1.296875 -19.535156 1.046875 -19.765625 C 0.796875 -20.003906 0.671875 -20.332031 0.671875 -20.75 C 0.671875 -21.539062 0.953125 -22.1875 1.515625 -22.6875 C 2.398438 -23.539062 3.425781 -24.425781 4.59375 -25.34375 C 5.769531 -26.257812 6.894531 -27.019531 7.96875 -27.625 C 8.601562 -27.976562 9.0625 -28.191406 9.34375 -28.265625 C 9.632812 -28.347656 9.84375 -28.390625 9.96875 -28.390625 C 10.3125 -28.390625 10.59375 -28.238281 10.8125 -27.9375 C 11.039062 -27.632812 11.140625 -27.3125 11.109375 -26.96875 C 11.046875 -26.269531 11 -25.578125 10.96875 -24.890625 C 10.9375 -24.210938 10.90625 -23.507812 10.875 -22.78125 L 15.5625 -22.78125 C 16.007812 -22.78125 16.398438 -22.660156 16.734375 -22.421875 C 17.066406 -22.191406 17.15625 -21.679688 17 -20.890625 C 16.863281 -20.097656 16.597656 -19.585938 16.203125 -19.359375 C 15.816406 -19.140625 15.351562 -19.046875 14.8125 -19.078125 L 10.828125 -19.21875 L 10.828125 -10.390625 C 10.828125 -8.804688 10.90625 -7.59375 11.0625 -6.75 C 11.21875 -5.914062 11.492188 -5.347656 11.890625 -5.046875 C 12.285156 -4.753906 12.800781 -4.609375 13.4375 -4.609375 C 14.03125 -4.609375 14.601562 -4.722656 15.15625 -4.953125 C 15.71875 -5.191406 16.25 -5.503906 16.75 -5.890625 Z M 16.75 -5.890625 "/></g></g></g><g fill="#000000" fill-opacity="1"><g transform="translate(254.274273, 196.723405)"><g><path d="M 22.828125 -7.828125 C 23.367188 -8.335938 23.828125 -8.414062 24.203125 -8.0625 C 24.585938 -7.71875 24.65625 -7.179688 24.40625 -6.453125 C 24.113281 -5.535156 23.46875 -4.53125 22.46875 -3.4375 C 21.476562 -2.34375 20.179688 -1.414062 18.578125 -0.65625 C 16.984375 0.09375 15.09375 0.46875 12.90625 0.46875 C 10.664062 0.46875 8.679688 -0.00390625 6.953125 -0.953125 C 5.222656 -1.898438 3.882812 -3.21875 2.9375 -4.90625 C 1.988281 -6.601562 1.515625 -8.546875 1.515625 -10.734375 C 1.515625 -12.566406 1.851562 -14.25 2.53125 -15.78125 C 3.21875 -17.3125 4.144531 -18.628906 5.3125 -19.734375 C 6.488281 -20.847656 7.8125 -21.710938 9.28125 -22.328125 C 10.75 -22.953125 12.289062 -23.265625 13.90625 -23.265625 C 15.90625 -23.265625 17.59375 -22.898438 18.96875 -22.171875 C 20.34375 -21.441406 21.414062 -20.5 22.1875 -19.34375 C 22.96875 -18.1875 23.453125 -16.925781 23.640625 -15.5625 C 23.734375 -14.738281 23.367188 -14.140625 22.546875 -13.765625 C 20.992188 -13.003906 19.550781 -12.320312 18.21875 -11.71875 C 16.894531 -11.125 15.566406 -10.554688 14.234375 -10.015625 C 12.910156 -9.472656 11.472656 -8.90625 9.921875 -8.3125 C 10.429688 -7.394531 11.191406 -6.578125 12.203125 -5.859375 C 13.210938 -5.148438 14.539062 -4.796875 16.1875 -4.796875 C 17.582031 -4.796875 18.820312 -5.101562 19.90625 -5.71875 C 21 -6.332031 21.972656 -7.035156 22.828125 -7.828125 Z M 11.53125 -19.703125 C 10.550781 -19.484375 9.785156 -18.894531 9.234375 -17.9375 C 8.679688 -16.988281 8.40625 -15.820312 8.40625 -14.4375 C 8.40625 -13.925781 8.441406 -13.382812 8.515625 -12.8125 C 8.597656 -12.25 8.703125 -11.773438 8.828125 -11.390625 C 9.929688 -11.773438 11.03125 -12.171875 12.125 -12.578125 C 13.21875 -12.992188 14.285156 -13.453125 15.328125 -13.953125 C 15.742188 -14.140625 16.097656 -14.359375 16.390625 -14.609375 C 16.691406 -14.867188 16.734375 -15.347656 16.515625 -16.046875 C 16.140625 -17.367188 15.484375 -18.378906 14.546875 -19.078125 C 13.617188 -19.773438 12.613281 -19.984375 11.53125 -19.703125 Z M 11.53125 -19.703125 "/></g></g></g><g fill="#000000" fill-opacity="1"><g transform="translate(275.061308, 196.723405)"><g><path d="M 5.5 0.46875 C 5.0625 0.46875 4.695312 0.328125 4.40625 0.046875 C 4.125 -0.234375 3.8125 -0.769531 3.46875 -1.5625 C 3.050781 -2.539062 2.703125 -3.410156 2.421875 -4.171875 C 2.140625 -4.929688 1.914062 -5.675781 1.75 -6.40625 C 1.625 -7.039062 1.625 -7.515625 1.75 -7.828125 C 1.882812 -8.148438 2.09375 -8.375 2.375 -8.5 C 2.78125 -8.71875 3.210938 -8.691406 3.671875 -8.421875 C 4.128906 -8.148438 4.675781 -7.75 5.3125 -7.21875 C 6.707031 -5.945312 8.082031 -4.84375 9.4375 -3.90625 C 10.800781 -2.976562 12.210938 -2.515625 13.671875 -2.515625 C 14.367188 -2.515625 14.898438 -2.695312 15.265625 -3.0625 C 15.628906 -3.425781 15.8125 -3.859375 15.8125 -4.359375 C 15.8125 -5.117188 15.25 -5.851562 14.125 -6.5625 C 13 -7.28125 11.359375 -8.097656 9.203125 -9.015625 C 8.066406 -9.554688 6.992188 -10.140625 5.984375 -10.765625 C 4.972656 -11.398438 4.140625 -12.175781 3.484375 -13.09375 C 2.835938 -14.019531 2.515625 -15.144531 2.515625 -16.46875 C 2.515625 -18.050781 2.925781 -19.335938 3.75 -20.328125 C 4.570312 -21.328125 5.609375 -22.066406 6.859375 -22.546875 C 8.109375 -23.023438 9.347656 -23.265625 10.578125 -23.265625 C 11.972656 -23.265625 13.117188 -23.148438 14.015625 -22.921875 C 14.921875 -22.703125 15.738281 -22.578125 16.46875 -22.546875 C 17.007812 -22.546875 17.390625 -22.664062 17.609375 -22.90625 C 17.828125 -23.144531 18.175781 -23.265625 18.65625 -23.265625 C 19.0625 -23.265625 19.398438 -23.117188 19.671875 -22.828125 C 19.941406 -22.546875 20.285156 -22.023438 20.703125 -21.265625 C 20.984375 -20.722656 21.203125 -20.257812 21.359375 -19.875 C 21.515625 -19.5 21.707031 -19.046875 21.9375 -18.515625 C 22.21875 -17.753906 22.3125 -17.179688 22.21875 -16.796875 C 22.125 -16.421875 21.898438 -16.15625 21.546875 -16 C 21.078125 -15.78125 20.585938 -15.828125 20.078125 -16.140625 C 19.566406 -16.453125 18.953125 -16.863281 18.234375 -17.375 C 17.304688 -18.007812 16.273438 -18.632812 15.140625 -19.25 C 14.003906 -19.863281 12.929688 -20.171875 11.921875 -20.171875 C 11.097656 -20.171875 10.492188 -19.976562 10.109375 -19.59375 C 9.734375 -19.21875 9.546875 -18.8125 9.546875 -18.375 C 9.546875 -17.675781 10.003906 -17.03125 10.921875 -16.4375 C 11.835938 -15.851562 13.210938 -15.148438 15.046875 -14.328125 C 17.703125 -13.128906 19.742188 -11.957031 21.171875 -10.8125 C 22.597656 -9.675781 23.3125 -8.269531 23.3125 -6.59375 C 23.3125 -5.144531 22.890625 -3.890625 22.046875 -2.828125 C 21.210938 -1.765625 20.113281 -0.945312 18.75 -0.375 C 17.382812 0.1875 15.878906 0.46875 14.234375 0.46875 C 12.210938 0.46875 10.703125 0.304688 9.703125 -0.015625 C 8.710938 -0.347656 7.945312 -0.515625 7.40625 -0.515625 C 7.09375 -0.515625 6.816406 -0.347656 6.578125 -0.015625 C 6.335938 0.304688 5.976562 0.46875 5.5 0.46875 Z M 5.5 0.46875 "/></g></g></g><g clip-path="url(#9ab7f4ee87)"><path fill="#000000" d="M 174.320312 164.078125 L 187.5 164.078125 L 187.5 196.046875 L 174.320312 196.046875 Z M 174.320312 164.078125 " fill-opacity="1" fill-rule="nonzero"/></g><g clip-path="url(#bf97e847e0)"><g clip-path="url(#3054f6410e)"><g clip-path="url(#f6077122c5)"><path fill="#ffffff" d="M 176.375 167.597656 L 183.09375 165.300781 L 180.851562 176.152344 L 184.789062 174.804688 L 178.726562 196.035156 L 179.503906 180.910156 L 175.292969 182.589844 Z M 176.375 167.597656 " fill-opacity="1" fill-rule="nonzero"/></g></g></g><g clip-path="url(#143fea520e)"><g clip-path="url(#95d9fc8860)"><g clip-path="url(#6eda1f89b3)"><path fill="#000000" d="M 176.375 167.597656 L 177.53125 167.203125 L 175.292969 182.589844 Z M 178.726562 196.035156 L 180.316406 180.632812 L 179.503906 180.910156 Z M 178.726562 196.035156 " fill-opacity="1" fill-rule="nonzero"/></g></g></g><g clip-path="url(#c730be4957)"><path fill="#000000" d="M 301.652344 190.921875 L 306.640625 190.921875 L 306.640625 196.046875 L 301.652344 196.046875 Z M 301.652344 190.921875 " fill-opacity="1" fill-rule="nonzero"/></g><g clip-path="url(#d14b985bff)"><g clip-path="url(#468dceebbe)"><path fill="#ffffff" d="M 193.273438 78.148438 L 234.300781 78.148438 L 234.300781 142.089844 L 193.273438 142.089844 Z M 193.273438 78.148438 " fill-opacity="1" fill-rule="nonzero"/></g></g><g clip-path="url(#32f8becdb4)"><g clip-path="url(#5c000ec51e)"><path fill="#ffffff" d="M 176.625 159.824219 L 185.175781 159.824219 L 185.175781 171.011719 L 176.625 171.011719 Z M 176.625 159.824219 " fill-opacity="1" fill-rule="nonzero"/></g></g><g clip-path="url(#a4fcc159c7)"><g clip-path="url(#708de12c53)"><path fill="#ffffff" d="M 175.800781 160.351562 L 184.125 160.351562 L 184.125 170.917969 L 175.800781 170.917969 Z M 175.800781 160.351562 " fill-opacity="1" fill-rule="nonzero"/></g></g><g clip-path="url(#8a87bc2667)"><g clip-path="url(#6af24118e0)"><path fill="#ffffff" d="M 175.425781 160.351562 L 184.273438 160.351562 L 184.273438 172.863281 L 175.425781 172.863281 Z M 175.425781 160.351562 " fill-opacity="1" fill-rule="nonzero"/></g></g><g clip-path="url(#4e965bab2a)"><g clip-path="url(#d60be50da8)"><path fill="#ffffff" d="M 175.199219 160.125 L 183.75 160.125 L 183.75 172.648438 L 175.199219 172.648438 Z M 175.199219 160.125 " fill-opacity="1" fill-rule="nonzero"/></g></g><g clip-path="url(#bbe44f8c91)"><g clip-path="url(#eeb81c2c1e)"><path fill="#ffffff" d="M 175.351562 159.675781 L 183.976562 159.675781 L 183.976562 171.535156 L 175.351562 171.535156 Z M 175.351562 159.675781 " fill-opacity="1" fill-rule="nonzero"/></g></g><g clip-path="url(#abe0e40860)"><g clip-path="url(#3db976b673)"><path fill="#ffffff" d="M 175.425781 160.050781 L 183.75 160.050781 L 183.75 171.757812 L 175.425781 171.757812 Z M 175.425781 160.050781 " fill-opacity="1" fill-rule="nonzero"/></g></g><g clip-path="url(#03b09ae9db)"><g clip-path="url(#5cc4166cfa)"><path fill="#ffffff" d="M 174.898438 159.375 L 183.75 159.375 L 183.75 172.960938 L 174.898438 172.960938 Z M 174.898438 159.375 " fill-opacity="1" fill-rule="nonzero"/></g></g><g clip-path="url(#af5bca0c1f)"><g clip-path="url(#e7fa23bfa3)"><path fill="#ffffff" d="M 174.824219 158.550781 L 183.601562 158.550781 L 183.601562 172.261719 L 174.824219 172.261719 Z M 174.824219 158.550781 " fill-opacity="1" fill-rule="nonzero"/></g></g><g clip-path="url(#d8050f80fd)"><g clip-path="url(#ff5da438e1)"><path fill="#ffffff" d="M 174.898438 158.773438 L 183.601562 158.773438 L 183.601562 172.640625 L 174.898438 172.640625 Z M 174.898438 158.773438 " fill-opacity="1" fill-rule="nonzero"/></g></g><g clip-path="url(#7c77dde4ec)"><g clip-path="url(#3a397edf07)"><path fill="#ffffff" d="M 174.898438 157.574219 L 183.375 157.574219 L 183.375 171.910156 L 174.898438 171.910156 Z M 174.898438 157.574219 " fill-opacity="1" fill-rule="nonzero"/></g></g><g clip-path="url(#c7d1b04bd8)"><g clip-path="url(#334407ecc5)"><path fill="#ffffff" d="M 178.050781 158.324219 L 186.523438 158.324219 L 186.523438 169.515625 L 178.050781 169.515625 Z M 178.050781 158.324219 " fill-opacity="1" fill-rule="nonzero"/></g></g><g clip-path="url(#d184f9c644)"><g clip-path="url(#dda616a577)"><path fill="#ffffff" d="M 177.375 158.175781 L 186.375 158.175781 L 186.375 172.0625 L 177.375 172.0625 Z M 177.375 158.175781 " fill-opacity="1" fill-rule="nonzero"/></g></g><g clip-path="url(#56f5fca9de)"><g clip-path="url(#f46780f604)"><path fill="#ffffff" d="M 177.449219 158.851562 L 186.375 158.851562 L 186.375 171.890625 L 177.449219 171.890625 Z M 177.449219 158.851562 " fill-opacity="1" fill-rule="nonzero"/></g></g><g clip-path="url(#423d585cdf)"><g clip-path="url(#2108fa7dc6)"><path fill="#ffffff" d="M 177.675781 159 L 186.226562 159 L 186.226562 171.089844 L 177.675781 171.089844 Z M 177.675781 159 " fill-opacity="1" fill-rule="nonzero"/></g></g><g clip-path="url(#6245a4e0d1)"><g clip-path="url(#df5d54a9e9)"><path fill="#ffffff" d="M 177.300781 158.101562 L 186.675781 158.101562 L 186.675781 173.773438 L 177.300781 173.773438 Z M 177.300781 158.101562 " fill-opacity="1" fill-rule="nonzero"/></g></g><g clip-path="url(#b7efbbf39c)"><g clip-path="url(#b3237a8118)"><path fill="#ffffff" d="M 176.417969 154.136719 L 185.792969 154.136719 L 185.792969 169.957031 L 176.417969 169.957031 Z M 176.417969 154.136719 " fill-opacity="1" fill-rule="nonzero"/></g></g><g clip-path="url(#f2a65ad6b5)"><g clip-path="url(#ab69fc2f8f)"><path fill="#ffffff" d="M 177.449219 157.050781 L 187.050781 157.050781 L 187.050781 173.398438 L 177.449219 173.398438 Z M 177.449219 157.050781 " fill-opacity="1" fill-rule="nonzero"/></g></g><g clip-path="url(#fbebb384d9)"><g clip-path="url(#d4ec3e4be5)"><path fill="#ffffff" d="M 177.898438 156.898438 L 187.050781 156.898438 L 187.050781 172.589844 L 177.898438 172.589844 Z M 177.898438 156.898438 " fill-opacity="1" fill-rule="nonzero"/></g></g><g clip-path="url(#ef422b8221)"><g clip-path="url(#83f973a25f)"><path fill="#ffffff" d="M 177.449219 157.648438 L 187.199219 157.648438 L 187.199219 172.882812 L 177.449219 172.882812 Z M 177.449219 157.648438 " fill-opacity="1" fill-rule="nonzero"/></g></g><g clip-path="url(#ac069e23dc)"><g clip-path="url(#c9a693c3fd)"><path fill="#ffffff" d="M 174.824219 159.601562 L 183.601562 159.601562 L 183.601562 172.417969 L 174.824219 172.417969 Z M 174.824219 159.601562 " fill-opacity="1" fill-rule="nonzero"/></g></g><g clip-path="url(#5a7f8c7473)"><g clip-path="url(#e518daa0d1)"><path fill="#ffffff" d="M 173.570312 165.941406 L 182.117188 165.941406 L 182.117188 181.238281 L 173.570312 181.238281 Z M 173.570312 165.941406 " fill-opacity="1" fill-rule="nonzero"/></g></g><path stroke-linecap="butt" transform="matrix(0.119903, -0.740353, 0.740353, 0.119903, 176.360501, 177.792807)" fill="none" stroke-linejoin="miter" d="M 0.0015022 1.997914 L 27.211516 2.00206 " stroke="#ffffff" stroke-width="4" stroke-opacity="1" stroke-miterlimit="4"/><path stroke-linecap="butt" transform="matrix(0.205157, -0.721395, 0.721395, 0.205157, 179.324275, 169.139257)" fill="none" stroke-linejoin="miter" d="M -0.00207625 1.998595 L 18.0029 2.000616 " stroke="#ffffff" stroke-width="4" stroke-opacity="1" stroke-miterlimit="4"/><path stroke-linecap="butt" transform="matrix(0.0910832, -0.744449, 0.744449, 0.0910832, 176.351419, 177.849584)" fill="none" stroke-linejoin="miter" d="M 0.000585185 1.999293 L 32.103075 2.001687 " stroke="#ffffff" stroke-width="4" stroke-opacity="1" stroke-miterlimit="4"/></svg>